<svg width="20" height="20" viewBox="0 0 20 20" fill="none" xmlns="http://www.w3.org/2000/svg">
<path d="M4.35313 4.9375C4.38438 4.6875 4.59687 4.5 4.85 4.5H15.1531C15.4031 4.5 15.6156 4.6875 15.65 4.9375L16.4312 11H13.7688C13.35 11 12.9594 11.2094 12.7281 11.5562L12.1 12.5H7.90312L7.275 11.5562C7.04375 11.2094 6.65312 11 6.23438 11H3.57187L4.35313 4.9375ZM3.5 12.5H6.1L6.72813 13.4438C6.95938 13.7906 7.35 14 7.76875 14H12.2344C12.6531 14 13.0437 13.7906 13.275 13.4438L13.9031 12.5H16.5031V15C16.5031 15.275 16.2781 15.5 16.0031 15.5H4C3.725 15.5 3.5 15.275 3.5 15V12.5ZM4.85 3C3.84375 3 2.99375 3.74688 2.86563 4.74375L2.00625 11.4031L2 11.4531V15C2 16.1031 2.89688 17 4 17H16C17.1031 17 18 16.1031 18 15V11.4531L17.9937 11.4062L17.1344 4.74688C17.0062 3.74688 16.1562 3 15.15 3H4.85Z" fill="#919293"/>
</svg>
