<svg width="18" height="18" viewBox="0 0 18 18" fill="none" xmlns="http://www.w3.org/2000/svg">
<rect width="18" height="18" rx="2" fill="#FFF301" fill-opacity="0.2"></rect>
<path d="M11.4638 3.08562C11.6628 3.21687 11.7481 3.46405 11.6737 3.68937L10.3875 7.5503H13.0322C13.4566 7.5503 13.8 7.89374 13.8 8.31812C13.8 8.53687 13.7081 8.74468 13.5441 8.88905L6.975 14.7669C6.79781 14.9266 6.53531 14.9462 6.33625 14.815C6.13719 14.6837 6.05187 14.4366 6.12625 14.2112L7.4125 10.3503H4.76781C4.34344 10.3503 4 10.0069 4 9.58249C4 9.36593 4.09187 9.15812 4.25594 9.01155L10.825 3.13374C11.0022 2.97405 11.2647 2.95655 11.4638 3.08562ZM5.50719 9.3003H8.14094C8.30937 9.3003 8.46906 9.38124 8.5675 9.51905C8.66594 9.65687 8.69219 9.83187 8.63969 9.99155L7.74719 12.6669L12.2928 8.6003H9.65906C9.49063 8.6003 9.33094 8.51937 9.2325 8.38155C9.13406 8.24374 9.10781 8.06874 9.16031 7.90905L10.0528 5.23374L5.50719 9.3003Z" fill="#FFF301"></path>
</svg>