<svg width="20" height="20" viewBox="0 0 20 20" fill="none" xmlns="http://www.w3.org/2000/svg">
<path d="M13.5875 1.69063C13.9593 1.95938 14.0968 2.44688 13.9281 2.87188L11.4781 9.00001H16C16.4218 9.00001 16.7968 9.26251 16.9406 9.65938C17.0843 10.0563 16.9625 10.5 16.6406 10.7688L7.6406 18.2688C7.28747 18.5625 6.78435 18.5781 6.41247 18.3094C6.0406 18.0406 5.9031 17.5531 6.07185 17.1281L8.52185 11H3.99997C3.5781 11 3.2031 10.7375 3.05935 10.3406C2.9156 9.94376 3.03747 9.50001 3.35935 9.23126L12.3593 1.73126C12.7125 1.43751 13.2156 1.42188 13.5875 1.69063Z" fill="black"/>
</svg>
