<svg width="14" height="14" viewBox="0 0 14 14" fill="none" xmlns="http://www.w3.org/2000/svg">
<path d="M4.72534 1.40009C5.01628 1.40009 5.25034 1.63415 5.25034 1.92509V2.80009H8.75034V1.92509C8.75034 1.63415 8.9844 1.40009 9.27534 1.40009C9.56628 1.40009 9.80034 1.63415 9.80034 1.92509V2.80009H10.5003C11.2725 2.80009 11.9003 3.4279 11.9003 4.20009V10.5001C11.9003 11.2723 11.2725 11.9001 10.5003 11.9001H3.50034C2.72815 11.9001 2.10034 11.2723 2.10034 10.5001V4.20009C2.10034 3.4279 2.72815 2.80009 3.50034 2.80009H4.20034V1.92509C4.20034 1.63415 4.4344 1.40009 4.72534 1.40009ZM4.72534 3.85009H3.50034C3.30784 3.85009 3.15034 4.00759 3.15034 4.20009V5.25009H10.8503V4.20009C10.8503 4.00759 10.6928 3.85009 10.5003 3.85009H4.72534ZM3.15034 6.30009V10.5001C3.15034 10.6926 3.30784 10.8501 3.50034 10.8501H10.5003C10.6928 10.8501 10.8503 10.6926 10.8503 10.5001V6.30009H3.15034Z" fill="#000"></path>
</svg>