<svg width="18" height="18" viewBox="0 0 18 18" fill="none" xmlns="http://www.w3.org/2000/svg">
<path d="M3.15005 3.37501C3.15005 3.00095 2.84911 2.70001 2.47505 2.70001C2.10099 2.70001 1.80005 3.00095 1.80005 3.37501V13.05C1.80005 14.2931 2.80692 15.3 4.05005 15.3H15.525C15.8991 15.3 16.2 14.9991 16.2 14.625C16.2 14.251 15.8991 13.95 15.525 13.95H4.05005C3.55224 13.95 3.15005 13.5478 3.15005 13.05V3.37501ZM6.07505 4.05001C5.70099 4.05001 5.40005 4.35095 5.40005 4.72501C5.40005 5.09907 5.70099 5.40001 6.07505 5.40001H9.22505C9.59911 5.40001 9.90005 5.09907 9.90005 4.72501C9.90005 4.35095 9.59911 4.05001 9.22505 4.05001H6.07505ZM8.10005 7.20001C7.72599 7.20001 7.42505 7.50095 7.42505 7.87501C7.42505 8.24907 7.72599 8.55001 8.10005 8.55001H11.7C12.0741 8.55001 12.375 8.24907 12.375 7.87501C12.375 7.50095 12.0741 7.20001 11.7 7.20001H8.10005ZM12.375 10.35C12.001 10.35 11.7 10.651 11.7 11.025C11.7 11.3991 12.001 11.7 12.375 11.7H14.625C14.9991 11.7 15.3 11.3991 15.3 11.025C15.3 10.651 14.9991 10.35 14.625 10.35H12.375Z" fill="#000"></path>
</svg>