<svg width="18" height="18" viewBox="0 0 18 18" fill="none" xmlns="http://www.w3.org/2000/svg">
<path d="M3.15005 4.05001H4.50005V12.15H3.15005V4.05001ZM1.80005 4.05001V12.15C1.80005 12.8953 2.40474 13.5 3.15005 13.5H4.50005C5.24536 13.5 5.85005 12.8953 5.85005 12.15V4.05001C5.85005 3.3047 5.24536 2.70001 4.50005 2.70001H3.15005C2.40474 2.70001 1.80005 3.3047 1.80005 4.05001ZM14.85 4.05001V13.95H13.5V4.05001H14.85ZM13.5 2.70001C12.7547 2.70001 12.15 3.3047 12.15 4.05001V13.95C12.15 14.6953 12.7547 15.3 13.5 15.3H14.85C15.5954 15.3 16.2 14.6953 16.2 13.95V4.05001C16.2 3.3047 15.5954 2.70001 14.85 2.70001H13.5ZM9.67505 4.05001V8.55001H8.32505V4.05001H9.67505ZM8.32505 2.70001C7.57974 2.70001 6.97505 3.3047 6.97505 4.05001V8.55001C6.97505 9.29532 7.57974 9.90001 8.32505 9.90001H9.67505C10.4204 9.90001 11.025 9.29532 11.025 8.55001V4.05001C11.025 3.3047 10.4204 2.70001 9.67505 2.70001H8.32505Z" fill="#000"></path>
</svg>