<svg width="20" height="20" viewBox="0 0 20 20" fill="none" xmlns="http://www.w3.org/2000/svg">
<path d="M13.4719 2.5C14.1188 2.5 14.725 2.8125 15.1 3.3375L16.6281 5.47813C16.8688 5.81563 17 6.225 17 6.64062V15C17 16.1031 16.1031 17 15 17H5C3.89688 17 3 16.1031 3 15V6.64062C3 6.225 3.13125 5.81875 3.37187 5.47813L4.9 3.3375C5.27812 2.8125 5.88438 2.5 6.52813 2.5H13.4688H13.4719ZM4.5 15C4.5 15.275 4.725 15.5 5 15.5H15C15.275 15.5 15.5 15.275 15.5 15V7.5H4.5V15ZM11.1469 9.49687C11.3906 9.1625 11.8594 9.0875 12.1938 9.33125C12.5281 9.575 12.6031 10.0438 12.3594 10.3781L9.98125 13.65C9.85 13.8281 9.64688 13.9406 9.425 13.9563C9.20313 13.9719 8.9875 13.8875 8.83437 13.7281L7.7125 12.5656C7.425 12.2688 7.43437 11.7938 7.73125 11.5063C8.02812 11.2188 8.50313 11.225 8.79063 11.525L9.29375 12.0437L11.1469 9.49375V9.49687ZM6.52813 4C6.36563 4 6.21563 4.07812 6.12188 4.20937L4.84375 6H9.25V4H6.52813ZM10.75 6H15.1562L13.8781 4.20937C13.7844 4.07812 13.6313 4 13.4719 4H10.75V6Z" fill="#919293"/>
</svg>
