<svg width="14" height="14" viewBox="0 0 14 14" fill="none" xmlns="http://www.w3.org/2000/svg">
<path d="M2.26408 6.62813C2.05846 6.83375 2.05846 7.16625 2.26408 7.36969L6.63908 11.7447C6.84471 11.9503 7.17721 11.9503 7.38064 11.7447C7.58408 11.5391 7.58627 11.2066 7.38064 11.0031L3.37752 7L7.38064 2.99688C7.58627 2.79125 7.58627 2.45875 7.38064 2.25531C7.17502 2.05188 6.84252 2.04969 6.63908 2.25531L2.26408 6.62813ZM10.8391 2.25313L6.46408 6.62813C6.25846 6.83375 6.25846 7.16625 6.46408 7.36969L10.8391 11.7447C11.0447 11.9503 11.3772 11.9503 11.5806 11.7447C11.7841 11.5391 11.7863 11.2066 11.5806 11.0031L7.57752 7L11.5806 2.99688C11.7863 2.79125 11.7863 2.45875 11.5806 2.25531C11.375 2.05188 11.0425 2.04969 10.8391 2.25531V2.25313Z" fill="#000"></path>
</svg>