<svg width="20" height="20" viewBox="0 0 20 20" fill="none" xmlns="http://www.w3.org/2000/svg">
<path d="M16.5435 9.46895C16.8372 9.7627 16.8372 10.2377 16.5435 10.5283L10.2935 16.7783C9.99973 17.0721 9.52473 17.0721 9.23411 16.7783C8.94348 16.4846 8.94036 16.0096 9.23411 15.7189L14.9529 10.0002L9.23411 4.28145C8.94036 3.9877 8.94036 3.5127 9.23411 3.22207C9.52786 2.93145 10.0029 2.92832 10.2935 3.22207L16.5435 9.46895ZM4.29348 3.21895L10.5435 9.46895C10.8372 9.7627 10.8372 10.2377 10.5435 10.5283L4.29348 16.7783C3.99973 17.0721 3.52473 17.0721 3.23411 16.7783C2.94348 16.4846 2.94036 16.0096 3.23411 15.7189L8.95286 10.0002L3.23411 4.28145C2.94036 3.9877 2.94036 3.5127 3.23411 3.22207C3.52786 2.93145 4.00286 2.92832 4.29348 3.22207V3.21895Z" fill="#919293"/>
</svg>
