<svg width="14" height="14" viewBox="0 0 14 14" fill="none" xmlns="http://www.w3.org/2000/svg">
<path d="M2.01789 6.475C2.28695 6.475 2.51008 6.27156 2.56914 6.00906C2.68508 5.48625 2.8907 4.99844 3.16852 4.56094C3.31289 4.33344 3.29977 4.03156 3.10727 3.84125C2.88633 3.62031 2.52102 3.63563 2.3482 3.89594C1.95008 4.49313 1.66352 5.17125 1.51914 5.89969C1.45789 6.20594 1.70508 6.475 2.01789 6.475ZM4.57289 3.15875C5.01039 2.88094 5.4982 2.67531 6.02102 2.55938C6.28352 2.50031 6.48695 2.27719 6.48695 2.00813C6.48695 1.69531 6.21789 1.44813 5.91164 1.50938C5.1832 1.65375 4.50508 1.94031 3.90789 2.33844C3.64758 2.51125 3.63227 2.87656 3.8532 3.0975C4.04352 3.28781 4.34539 3.30313 4.57289 3.15875ZM7.53695 11.9941C7.53695 12.3069 7.80602 12.5541 8.11227 12.4928C8.8407 12.3484 9.51883 12.0619 10.116 11.6638C10.3763 11.4909 10.3916 11.1256 10.1707 10.9047C9.98039 10.7144 9.67852 10.6991 9.45102 10.8434C9.01352 11.1213 8.5257 11.3269 8.00289 11.4428C7.74039 11.5019 7.53695 11.725 7.53695 11.9941ZM10.8532 9.43906C10.7088 9.66656 10.722 9.96844 10.9145 10.1588C11.1354 10.3797 11.5007 10.3644 11.6735 10.1041C12.0716 9.50688 12.3582 8.82875 12.5026 8.10031C12.5638 7.79406 12.3166 7.525 12.0038 7.525C11.7348 7.525 11.5116 7.72844 11.4526 7.99094C11.3366 8.51375 11.131 9.00156 10.8532 9.43906ZM3.8532 10.9003C3.63227 11.1212 3.64758 11.4866 3.90789 11.6594C4.50508 12.0575 5.1832 12.3441 5.91164 12.4884C6.21789 12.5497 6.48695 12.3025 6.48695 11.9897C6.48695 11.7206 6.28352 11.4975 6.02102 11.4384C5.4982 11.3225 5.01039 11.1169 4.57289 10.8391C4.34539 10.6947 4.04352 10.7078 3.8532 10.9003ZM2.35039 10.1041C2.5232 10.3644 2.88852 10.3797 3.10945 10.1588C3.29977 9.96844 3.31508 9.66656 3.1707 9.43906C2.89289 9.00156 2.68727 8.51375 2.57133 7.99094C2.51227 7.72844 2.28914 7.525 2.02008 7.525C1.70727 7.525 1.46008 7.79406 1.52133 8.10031C1.6657 8.82875 1.95227 9.50688 2.35039 10.1041ZM10.1707 3.0975C10.3916 2.87656 10.3763 2.51125 10.116 2.33844C9.51883 1.94031 8.8407 1.65375 8.11227 1.50938C7.80602 1.44813 7.53695 1.69531 7.53695 2.00813C7.53695 2.27719 7.74039 2.50031 8.00289 2.55938C8.5257 2.67531 9.01352 2.88094 9.45102 3.15875C9.67852 3.30313 9.98039 3.29 10.1707 3.0975ZM10.8532 4.55875C11.131 4.99625 11.3366 5.48406 11.4526 6.00688C11.5116 6.26938 11.7348 6.47281 12.0038 6.47281C12.3166 6.47281 12.5638 6.20375 12.5026 5.8975C12.3582 5.16906 12.0716 4.49094 11.6735 3.89375C11.5007 3.63344 11.1354 3.61813 10.9145 3.83906C10.7241 4.02938 10.7088 4.33125 10.8532 4.55875Z" fill="#000"></path>
</svg>