<svg width="14" height="14" viewBox="0 0 14 14" fill="none" xmlns="http://www.w3.org/2000/svg">
<path d="M6.28289 1.94685C6.35289 2.22903 6.18227 2.51341 5.90008 2.58341C3.9182 3.0756 2.45039 4.86716 2.45039 6.99997C2.45039 9.51341 4.48695 11.55 7.00039 11.55C9.51383 11.55 11.5504 9.51341 11.5504 6.99997C11.5504 4.86716 10.0826 3.0756 8.1007 2.58341C7.81852 2.51341 7.64789 2.22903 7.71789 1.94685C7.78789 1.66466 8.07227 1.49403 8.35445 1.56403C10.7935 2.16997 12.6004 4.37279 12.6004 6.99997C12.6004 10.0931 10.0935 12.6 7.00039 12.6C3.90727 12.6 1.40039 10.0931 1.40039 6.99997C1.40039 4.37279 3.20727 2.16997 5.64633 1.56403C5.92852 1.49403 6.21289 1.66685 6.28289 1.94685Z" fill="#000"></path>
</svg>