<svg width="14" height="14" viewBox="0 0 14 14" fill="none" xmlns="http://www.w3.org/2000/svg">
<path d="M7.00039 12.5999C5.51518 12.5999 4.0908 12.0099 3.04059 10.9597C1.99039 9.9095 1.40039 8.48511 1.40039 6.9999C1.40039 5.51469 1.99039 4.09031 3.04059 3.0401C4.0908 1.9899 5.51518 1.3999 7.00039 1.3999C8.4856 1.3999 9.90999 1.9899 10.9602 3.0401C12.0104 4.09031 12.6004 5.51469 12.6004 6.9999C12.6004 8.48511 12.0104 9.9095 10.9602 10.9597C9.90999 12.0099 8.4856 12.5999 7.00039 12.5999ZM7.00039 2.4499C5.79366 2.4499 4.63635 2.92928 3.78305 3.78257C2.92976 4.63586 2.45039 5.79317 2.45039 6.9999C2.45039 8.20664 2.92976 9.36395 3.78305 10.2172C4.63635 11.0705 5.79366 11.5499 7.00039 11.5499C8.20713 11.5499 9.36444 11.0705 10.2177 10.2172C11.071 9.36395 11.5504 8.20664 11.5504 6.9999C11.5504 5.79317 11.071 4.63586 10.2177 3.78257C9.36444 2.92928 8.20713 2.4499 7.00039 2.4499ZM8.54695 5.11646C8.71758 4.8824 9.0457 4.8299 9.27977 5.00053C9.51383 5.17115 9.56633 5.49928 9.3957 5.73334L6.72477 9.40834C6.63508 9.53303 6.49508 9.61178 6.34195 9.62271C6.18883 9.63365 6.03789 9.57896 5.9307 9.47178L4.70789 8.24896C4.50227 8.04334 4.50227 7.71084 4.70789 7.5074C4.91352 7.30397 5.24602 7.30178 5.44945 7.5074L6.23695 8.2949L8.54695 5.11865V5.11646Z" fill="#000"></path>
</svg>