<svg width="20" height="20" viewBox="0 0 20 20" fill="none" xmlns="http://www.w3.org/2000/svg">
<path d="M10 18C12.1217 18 14.1566 17.1571 15.6569 15.6569C17.1571 14.1566 18 12.1217 18 10C18 7.87827 17.1571 5.84344 15.6569 4.34315C14.1566 2.84285 12.1217 2 10 2C7.87827 2 5.84344 2.84285 4.34315 4.34315C2.84285 5.84344 2 7.87827 2 10C2 12.1217 2.84285 14.1566 4.34315 15.6569C5.84344 17.1571 7.87827 18 10 18ZM9 8V12C9 12.5531 8.55313 13 8 13C7.44687 13 7 12.5531 7 12V8C7 7.44687 7.44687 7 8 7C8.55313 7 9 7.44687 9 8ZM13 8V12C13 12.5531 12.5531 13 12 13C11.4469 13 11 12.5531 11 12V8C11 7.44687 11.4469 7 12 7C12.5531 7 13 7.44687 13 8Z" fill="#919293"/>
</svg>
