<svg width="16" height="16" viewBox="0 0 16 16" fill="none" xmlns="http://www.w3.org/2000/svg">
<path d="M10.0898 10.6C10.2448 9.98002 10.3473 9.30502 10.3848 8.60002H11.5848C11.5473 9.32752 11.4448 10.0025 11.2923 10.6H10.0923H10.0898ZM8.89983 13.2C9.20483 12.81 9.47483 12.3375 9.69733 11.8H10.8798C10.8498 11.865 10.8198 11.9275 10.7898 11.99C10.2748 13.02 9.78483 13.2 9.59983 13.2H8.89983ZM3.19983 8.00002C3.19983 11.535 4.81233 14.4 6.79983 14.4H9.59983C11.3673 14.4 12.7998 11.535 12.7998 8.00002C12.7998 4.46502 11.3673 1.60002 9.59983 1.60002H6.79983C4.81233 1.60002 3.19983 4.46502 3.19983 8.00002ZM9.77733 4.40002C9.53983 3.78002 9.24233 3.23752 8.89983 2.80002H9.59983C9.78483 2.80002 10.2748 2.98002 10.7898 4.01002C10.8498 4.13252 10.9098 4.26252 10.9648 4.40002H9.77733ZM10.3848 7.40002C10.3523 6.77002 10.2673 6.16502 10.1398 5.60002H11.3423C11.4673 6.14752 11.5548 6.75252 11.5873 7.40002H10.3873H10.3848ZM6.79983 12.8C5.47483 12.8 4.39983 10.65 4.39983 8.00002C4.39983 5.35002 5.47483 3.20002 6.79983 3.20002C8.12483 3.20002 9.19983 5.35002 9.19983 8.00002C9.19983 10.65 8.12483 12.8 6.79983 12.8ZM8.39983 8.00002C8.39983 6.01252 7.68233 4.40002 6.79983 4.40002C5.91733 4.40002 5.19983 6.01252 5.19983 8.00002C5.19983 9.98752 5.91733 11.6 6.79983 11.6C7.68233 11.6 8.39983 9.98752 8.39983 8.00002ZM6.79983 10C6.67483 10 6.56483 9.71502 6.48983 9.27002C6.43233 8.92502 6.39983 8.48252 6.39983 8.00002C6.39983 7.51752 6.43483 7.07502 6.48983 6.73002C6.56483 6.28502 6.67483 6.00002 6.79983 6.00002C6.92483 6.00002 7.03483 6.28502 7.10983 6.73002C7.16733 7.07502 7.19983 7.51752 7.19983 8.00002C7.19983 8.48252 7.16483 8.92502 7.10983 9.27002C7.03483 9.71502 6.92483 10 6.79983 10Z" fill="#000"></path>
</svg>