<svg width="20" height="20" viewBox="0 0 20 20" fill="none" xmlns="http://www.w3.org/2000/svg">
<path d="M3.5 4.75C3.5 4.33437 3.16563 4 2.75 4C2.33437 4 2 4.33437 2 4.75V7.75C2 9.40625 3.34375 10.75 5 10.75H15.4406L12.4719 13.7188C12.1781 14.0125 12.1781 14.4875 12.4719 14.7781C12.7656 15.0687 13.2406 15.0719 13.5312 14.7781L17.7812 10.5312C17.9219 10.3906 18 10.2 18 10C18 9.8 17.9219 9.60938 17.7812 9.46875L13.5312 5.21875C13.2375 4.925 12.7625 4.925 12.4719 5.21875C12.1813 5.5125 12.1781 5.9875 12.4719 6.27812L15.4406 9.24687H5C4.17188 9.24687 3.5 8.575 3.5 7.74687V4.74688V4.75Z" fill="#919293"/>
</svg>
