<svg width="20" height="20" viewBox="0 0 20 20" fill="none" xmlns="http://www.w3.org/2000/svg">
<path d="M7.5 3.5H4C3.725 3.5 3.5 3.725 3.5 4V16C3.5 16.275 3.725 16.5 4 16.5H8.84062C9.03125 17.0406 9.29688 17.5437 9.625 18H4C2.89688 18 2 17.1031 2 16V4C2 2.89688 2.89688 2 4 2H8.17188C8.70312 2 9.2125 2.20938 9.5875 2.58438L13.4156 6.41563C13.7906 6.79063 14 7.3 14 7.83125V8.50313H9.75C8.50625 8.50313 7.5 7.49688 7.5 6.25313V3.50312V3.5ZM11.8781 7L9 4.12188V6.25C9 6.66563 9.33437 7 9.75 7H11.8781ZM14.5 10C15.6935 10 16.8381 10.4741 17.682 11.318C18.5259 12.1619 19 13.3065 19 14.5C19 15.6935 18.5259 16.8381 17.682 17.682C16.8381 18.5259 15.6935 19 14.5 19C13.3065 19 12.1619 18.5259 11.318 17.682C10.4741 16.8381 10 15.6935 10 14.5C10 13.3065 10.4741 12.1619 11.318 11.318C12.1619 10.4741 13.3065 10 14.5 10ZM15 12.5C15 12.225 14.775 12 14.5 12C14.225 12 14 12.225 14 12.5V14H12.5C12.225 14 12 14.225 12 14.5C12 14.775 12.225 15 12.5 15H14V16.5C14 16.775 14.225 17 14.5 17C14.775 17 15 16.775 15 16.5V15H16.5C16.775 15 17 14.775 17 14.5C17 14.225 16.775 14 16.5 14H15V12.5Z" fill="#919293"/>
</svg>
