<svg width="16" height="16" viewBox="0 0 16 16" fill="none" xmlns="http://www.w3.org/2000/svg">
<path d="M7.59995 2.80001H4.79995C4.57995 2.80001 4.39995 2.98001 4.39995 3.20001V12.8C4.39995 13.02 4.57995 13.2 4.79995 13.2H11.2C11.42 13.2 11.6 13.02 11.6 12.8V6.80001H9.39995C8.40495 6.80001 7.59995 5.99501 7.59995 5.00001V2.80001ZM11.1025 5.60001L8.79995 3.29751V5.00001C8.79995 5.33251 9.06745 5.60001 9.39995 5.60001H11.1025ZM3.19995 3.20001C3.19995 2.31751 3.91745 1.60001 4.79995 1.60001H8.13745C8.56245 1.60001 8.96995 1.76751 9.26995 2.06751L12.3325 5.13251C12.6325 5.43251 12.8 5.84001 12.8 6.26501V12.8C12.8 13.6825 12.0825 14.4 11.2 14.4H4.79995C3.91745 14.4 3.19995 13.6825 3.19995 12.8V3.20001ZM5.19995 4.20001C5.19995 3.86751 5.46745 3.60001 5.79995 3.60001H6.19995C6.53245 3.60001 6.79995 3.86751 6.79995 4.20001C6.79995 4.53251 6.53245 4.80001 6.19995 4.80001H5.79995C5.46745 4.80001 5.19995 4.53251 5.19995 4.20001ZM5.19995 6.20001C5.19995 5.86751 5.46745 5.60001 5.79995 5.60001H6.19995C6.53245 5.60001 6.79995 5.86751 6.79995 6.20001C6.79995 6.53251 6.53245 6.80001 6.19995 6.80001H5.79995C5.46745 6.80001 5.19995 6.53251 5.19995 6.20001ZM8.09995 7.40001C8.37495 7.40001 8.59995 7.62501 8.59995 7.90001V8.00001H8.79995C9.07495 8.00001 9.29995 8.22501 9.29995 8.50001C9.29995 8.77501 9.07495 9.00001 8.79995 9.00001H7.71495C7.59745 9.00001 7.49995 9.09501 7.49995 9.21501C7.49995 9.31751 7.57245 9.40501 7.67245 9.42501L8.52495 9.59501C9.09245 9.70751 9.49995 10.2075 9.49995 10.785C9.49995 11.3475 9.11745 11.82 8.59995 11.9575V12.0975C8.59995 12.3725 8.37495 12.5975 8.09995 12.5975C7.82495 12.5975 7.59995 12.3725 7.59995 12.0975V11.9975H7.19995C6.92495 11.9975 6.69995 11.7725 6.69995 11.4975C6.69995 11.2225 6.92495 10.9975 7.19995 10.9975H8.28495C8.40245 10.9975 8.49995 10.9025 8.49995 10.7825C8.49995 10.68 8.42745 10.5925 8.32745 10.5725L7.47495 10.405C6.90745 10.2925 6.49995 9.79251 6.49995 9.21501C6.49995 8.58251 6.98245 8.06251 7.59995 8.00501V7.90001C7.59995 7.62501 7.82495 7.40001 8.09995 7.40001Z" fill="#000"></path>
</svg>