<svg width="20" height="20" viewBox="0 0 20 20" fill="none" xmlns="http://www.w3.org/2000/svg">
<path d="M4.04685 14.5L5.60935 9.5H17.4656L15.9031 14.5H4.04685ZM10.0062 16H15.9062C16.5625 16 17.1437 15.575 17.3375 14.9469L18.9 9.94688C19.2031 8.98125 18.4812 8 17.4687 8H5.61248C4.95623 8 4.37498 8.425 4.18123 9.05312L3.50623 11.2V5C3.50623 4.725 3.73123 4.5 4.00623 4.5H8.3406C8.44998 4.5 8.5531 4.53437 8.6406 4.6L9.8406 5.5C10.2719 5.825 10.8 6 11.3406 6H15.0062C15.2812 6 15.5062 6.225 15.5062 6.5H17.0062C17.0062 5.39688 16.1094 4.5 15.0062 4.5H11.3406C11.125 4.5 10.9125 4.43125 10.7406 4.3L9.5406 3.4C9.19373 3.14062 8.77498 3 8.3406 3H4.00623C2.9031 3 2.00623 3.89688 2.00623 5V14C2.00623 15.1031 2.9031 16 4.00623 16H10.0062Z" fill="#919293"/>
</svg>
