<svg width="18" height="18" viewBox="0 0 18 18" fill="none" xmlns="http://www.w3.org/2000/svg">
<path d="M4.04995 4.05V6.75H6.74995V4.05H4.04995ZM2.69995 4.05C2.69995 3.30468 3.30464 2.7 4.04995 2.7H6.74995C7.49526 2.7 8.09995 3.30468 8.09995 4.05V6.75C8.09995 7.49531 7.49526 8.1 6.74995 8.1H4.04995C3.30464 8.1 2.69995 7.49531 2.69995 6.75V4.05ZM4.04995 11.25V13.95H6.74995V11.25H4.04995ZM2.69995 11.25C2.69995 10.5047 3.30464 9.9 4.04995 9.9H6.74995C7.49526 9.9 8.09995 10.5047 8.09995 11.25V13.95C8.09995 14.6953 7.49526 15.3 6.74995 15.3H4.04995C3.30464 15.3 2.69995 14.6953 2.69995 13.95V11.25ZM13.95 4.05H11.25V6.75H13.95V4.05ZM11.25 2.7H13.95C14.6953 2.7 15.3 3.30468 15.3 4.05V6.75C15.3 7.49531 14.6953 8.1 13.95 8.1H11.25C10.5046 8.1 9.89995 7.49531 9.89995 6.75V4.05C9.89995 3.30468 10.5046 2.7 11.25 2.7ZM11.25 11.25V13.95H13.95V11.25H11.25ZM9.89995 11.25C9.89995 10.5047 10.5046 9.9 11.25 9.9H13.95C14.6953 9.9 15.3 10.5047 15.3 11.25V13.95C15.3 14.6953 14.6953 15.3 13.95 15.3H11.25C10.5046 15.3 9.89995 14.6953 9.89995 13.95V11.25Z" fill="#000"></path>
</svg>