<svg width="18" height="18" viewBox="0 0 18 18" fill="none" xmlns="http://www.w3.org/2000/svg">
<path d="M3.91786 4.44375C3.94599 4.21875 4.13724 4.05 4.36505 4.05H13.6379C13.8629 4.05 14.0541 4.21875 14.085 4.44375L14.7882 9.9H12.3919C12.015 9.9 11.6635 10.0884 11.4554 10.4006L10.89 11.25H7.11286L6.54755 10.4006C6.33942 10.0884 5.98786 9.9 5.61099 9.9H3.21474L3.91786 4.44375ZM3.15005 11.25H5.49005L6.05536 12.0994C6.26349 12.4116 6.61505 12.6 6.99192 12.6H11.011C11.3879 12.6 11.7394 12.4116 11.9475 12.0994L12.5129 11.25H14.8529V13.5C14.8529 13.7475 14.6504 13.95 14.4029 13.95H3.60005C3.35255 13.95 3.15005 13.7475 3.15005 13.5V11.25ZM4.36505 2.7C3.45942 2.7 2.69442 3.37218 2.57911 4.26937L1.80567 10.2628L1.80005 10.3078V13.5C1.80005 14.4928 2.60724 15.3 3.60005 15.3H14.4C15.3929 15.3 16.2 14.4928 16.2 13.5V10.3078L16.1944 10.2656L15.421 4.27218C15.3057 3.37218 14.5407 2.7 13.635 2.7H4.36505Z" fill="#000"></path>
</svg>