<svg width="20" height="20" viewBox="0 0 20 20" fill="none" xmlns="http://www.w3.org/2000/svg">
<path d="M14.3594 4.75C13.6906 4.75 13.0406 4.96563 12.5063 5.35625C12.15 4.99063 11.7437 4.66562 11.3062 4.39687C12.15 3.65937 13.2344 3.25 14.3594 3.25C16.9219 3.25 19 5.32812 19 7.89062C19 9.12188 18.5125 10.3 17.6406 11.1719L15.1687 13.6438C14.3 14.5125 13.1187 15.0031 11.8875 15.0031C9.325 15.0031 7.24687 12.925 7.24687 10.3625C7.24687 9.80313 7.34688 9.25312 7.54063 8.74062C7.68438 8.35312 8.11875 8.15625 8.50625 8.3C8.89375 8.44375 9.09375 8.875 8.95 9.2625C8.81875 9.60937 8.75 9.98125 8.75 10.3625C8.75 12.0969 10.1562 13.5031 11.8906 13.5031C12.7219 13.5031 13.5219 13.1719 14.1094 12.5844L16.5813 10.1125C17.1688 9.51875 17.5 8.72188 17.5 7.89062C17.5 6.15625 16.0938 4.75 14.3594 4.75ZM8.10938 6.5C7.27812 6.5 6.47812 6.83125 5.89062 7.41875L3.41875 9.89062C2.83125 10.4781 2.5 11.2781 2.5 12.1094C2.5 13.8438 3.90625 15.25 5.64062 15.25C6.30937 15.25 6.95938 15.0344 7.49375 14.6438C7.85 15.0125 8.25625 15.3344 8.69375 15.6031C7.85 16.3406 6.76562 16.75 5.64062 16.75C3.07812 16.75 1 14.6719 1 12.1094C1 10.8781 1.4875 9.7 2.35938 8.82812L4.83125 6.35625C5.7 5.4875 6.88125 4.99688 8.1125 4.99688C10.675 4.99688 12.7531 7.075 12.7531 9.6375C12.7531 10.1969 12.6531 10.7469 12.4594 11.2594C12.3156 11.6469 11.8812 11.8437 11.4937 11.7C11.1062 11.5562 10.9063 11.125 11.05 10.7375C11.1813 10.3906 11.25 10.0188 11.25 9.64062C11.25 7.90625 9.84375 6.5 8.10938 6.5Z" fill="#919293"/>
</svg>
