<svg width="18" height="18" viewBox="0 0 18 18" fill="none" xmlns="http://www.w3.org/2000/svg">
<path d="M5.72946 3.76352C5.94321 3.45696 5.87009 3.0379 5.56353 2.82415C5.25696 2.6104 4.8379 2.68352 4.62415 2.99009L3.50759 4.57915L2.95353 4.02227C2.68915 3.76071 2.26165 3.76071 1.99728 4.02227C1.7329 4.28384 1.73571 4.71415 1.99728 4.97852L3.12228 6.10352C3.2629 6.24415 3.45978 6.31727 3.65946 6.29759C3.85915 6.2779 4.03915 6.17665 4.15446 6.01352L5.72946 3.76352ZM5.72946 8.26352C5.94321 7.95696 5.87009 7.5379 5.56353 7.32415C5.25696 7.1104 4.8379 7.18352 4.62415 7.49009L3.50759 9.07915L2.95353 8.52227C2.68915 8.2579 2.26165 8.2579 2.00009 8.52227C1.73853 8.78665 1.73571 9.21415 1.99728 9.47852L3.12228 10.6035C3.2629 10.7441 3.45978 10.8173 3.65946 10.7976C3.85915 10.7779 4.03915 10.6766 4.15446 10.5135L5.72946 8.26352ZM7.2004 4.5004C7.2004 4.87446 7.50134 5.1754 7.8754 5.1754H15.5254C15.8995 5.1754 16.2004 4.87446 16.2004 4.5004C16.2004 4.12634 15.8995 3.8254 15.5254 3.8254H7.8754C7.50134 3.8254 7.2004 4.12634 7.2004 4.5004ZM7.2004 9.0004C7.2004 9.37446 7.50134 9.6754 7.8754 9.6754H15.5254C15.8995 9.6754 16.2004 9.37446 16.2004 9.0004C16.2004 8.62634 15.8995 8.3254 15.5254 8.3254H7.8754C7.50134 8.3254 7.2004 8.62634 7.2004 9.0004ZM6.3004 13.5004C6.3004 13.8745 6.60134 14.1754 6.9754 14.1754H15.5254C15.8995 14.1754 16.2004 13.8745 16.2004 13.5004C16.2004 13.1263 15.8995 12.8254 15.5254 12.8254H6.9754C6.60134 12.8254 6.3004 13.1263 6.3004 13.5004ZM4.5004 13.5004C4.5004 13.2617 4.40558 13.0328 4.2368 12.864C4.06802 12.6952 3.8391 12.6004 3.6004 12.6004C3.36171 12.6004 3.13279 12.6952 2.96401 12.864C2.79522 13.0328 2.7004 13.2617 2.7004 13.5004C2.7004 13.7391 2.79522 13.968 2.96401 14.1368C3.13279 14.3056 3.36171 14.4004 3.6004 14.4004C3.8391 14.4004 4.06802 14.3056 4.2368 14.1368C4.40558 13.968 4.5004 13.7391 4.5004 13.5004Z" fill="#000"></path>
</svg>