<svg width="16" height="16" viewBox="0 0 16 16" fill="none" xmlns="http://www.w3.org/2000/svg">
<path d="M5.09242 3.34489C5.28242 3.07239 5.21742 2.69989 4.94492 2.50989C4.67242 2.31989 4.29992 2.38489 4.10992 2.65739L3.11742 4.06989L2.62492 3.57489C2.38992 3.34239 2.00992 3.34239 1.77492 3.57489C1.53992 3.80739 1.54242 4.18989 1.77492 4.42489L2.77492 5.42489C2.89992 5.54989 3.07492 5.61489 3.25242 5.59739C3.42992 5.57989 3.58992 5.48989 3.69242 5.34489L5.09242 3.34489ZM5.09242 7.34489C5.28242 7.07239 5.21742 6.69989 4.94492 6.50989C4.67242 6.31989 4.29992 6.38489 4.10992 6.65739L3.11742 8.06989L2.62492 7.57489C2.38992 7.33989 2.00992 7.33989 1.77742 7.57489C1.54492 7.80989 1.54242 8.18989 1.77492 8.42489L2.77492 9.42489C2.89992 9.54989 3.07492 9.61489 3.25242 9.59739C3.42992 9.57989 3.58992 9.48989 3.69242 9.34489L5.09242 7.34489ZM6.39992 3.99989C6.39992 4.33239 6.66742 4.59989 6.99992 4.59989H13.7999C14.1324 4.59989 14.3999 4.33239 14.3999 3.99989C14.3999 3.66739 14.1324 3.39989 13.7999 3.39989H6.99992C6.66742 3.39989 6.39992 3.66739 6.39992 3.99989ZM6.39992 7.99989C6.39992 8.33239 6.66742 8.59989 6.99992 8.59989H13.7999C14.1324 8.59989 14.3999 8.33239 14.3999 7.99989C14.3999 7.66739 14.1324 7.39989 13.7999 7.39989H6.99992C6.66742 7.39989 6.39992 7.66739 6.39992 7.99989ZM5.59992 11.9999C5.59992 12.3324 5.86742 12.5999 6.19992 12.5999H13.7999C14.1324 12.5999 14.3999 12.3324 14.3999 11.9999C14.3999 11.6674 14.1324 11.3999 13.7999 11.3999H6.19992C5.86742 11.3999 5.59992 11.6674 5.59992 11.9999ZM3.99992 11.9999C3.99992 11.7877 3.91564 11.5842 3.76561 11.4342C3.61558 11.2842 3.4121 11.1999 3.19992 11.1999C2.98775 11.1999 2.78427 11.2842 2.63424 11.4342C2.48421 11.5842 2.39992 11.7877 2.39992 11.9999C2.39992 12.2121 2.48421 12.4155 2.63424 12.5656C2.78427 12.7156 2.98775 12.7999 3.19992 12.7999C3.4121 12.7999 3.61558 12.7156 3.76561 12.5656C3.91564 12.4155 3.99992 12.2121 3.99992 11.9999Z" fill="#000"></path>
</svg>