<svg width="20" height="20" viewBox="0 0 20 20" fill="none" xmlns="http://www.w3.org/2000/svg">
<path d="M8.5 17.2063C8.6875 17.3938 8.94063 17.5 9.20625 17.5H15C15.5531 17.5 16 17.0531 16 16.5V14.5C16 13.9469 15.5531 13.5 15 13.5H9.20625C8.94063 13.5 8.6875 13.6062 8.5 13.7937L7.14687 15.1469C6.95312 15.3406 6.95312 15.6594 7.14687 15.8531L8.5 17.2063ZM8.91563 4.5L9.41563 4H14.5V5H9.41563L8.91563 4.5ZM8.91563 10L9.41563 9.5H16.5V10.5H9.41563L8.91563 10ZM8.91563 15.5L9.41563 15H14.5V16H9.41563L8.91563 15.5ZM8.5 2.79375L7.14687 4.14687C6.95312 4.34062 6.95312 4.65938 7.14687 4.85313L8.5 6.20625C8.6875 6.39375 8.94063 6.5 9.20625 6.5H15C15.5531 6.5 16 6.05313 16 5.5V3.5C16 2.94687 15.5531 2.5 15 2.5H9.20625C8.94063 2.5 8.6875 2.60625 8.5 2.79375ZM9.20625 8C8.94063 8 8.6875 8.10625 8.5 8.29375L7.14687 9.64687C6.95312 9.84062 6.95312 10.1594 7.14687 10.3531L8.5 11.7063C8.6875 11.8938 8.94063 12 9.20625 12H17C17.5531 12 18 11.5531 18 11V9C18 8.44687 17.5531 8 17 8H9.20625ZM4 3.5C3.73478 3.5 3.48043 3.60536 3.29289 3.79289C3.10536 3.98043 3 4.23478 3 4.5C3 4.76522 3.10536 5.01957 3.29289 5.20711C3.48043 5.39464 3.73478 5.5 4 5.5C4.26522 5.5 4.51957 5.39464 4.70711 5.20711C4.89464 5.01957 5 4.76522 5 4.5C5 4.23478 4.89464 3.98043 4.70711 3.79289C4.51957 3.60536 4.26522 3.5 4 3.5ZM4 9C3.73478 9 3.48043 9.10536 3.29289 9.29289C3.10536 9.48043 3 9.73478 3 10C3 10.2652 3.10536 10.5196 3.29289 10.7071C3.48043 10.8946 3.73478 11 4 11C4.26522 11 4.51957 10.8946 4.70711 10.7071C4.89464 10.5196 5 10.2652 5 10C5 9.73478 4.89464 9.48043 4.70711 9.29289C4.51957 9.10536 4.26522 9 4 9ZM5 15.5C5 15.2348 4.89464 14.9804 4.70711 14.7929C4.51957 14.6054 4.26522 14.5 4 14.5C3.73478 14.5 3.48043 14.6054 3.29289 14.7929C3.10536 14.9804 3 15.2348 3 15.5C3 15.7652 3.10536 16.0196 3.29289 16.2071C3.48043 16.3946 3.73478 16.5 4 16.5C4.26522 16.5 4.51957 16.3946 4.70711 16.2071C4.89464 16.0196 5 15.7652 5 15.5Z" fill="#919293"/>
</svg>
