<svg width="20" height="20" viewBox="0 0 20 20" fill="none" xmlns="http://www.w3.org/2000/svg">
<path d="M12.75 15.5C12.3344 15.5 12 15.8344 12 16.25C12 16.6656 12.3344 17 12.75 17H15C16.6562 17 18 15.6562 18 14V6C18 4.34375 16.6562 3 15 3H12.75C12.3344 3 12 3.33437 12 3.75C12 4.16563 12.3344 4.5 12.75 4.5H15C15.8281 4.5 16.5 5.17188 16.5 6V14C16.5 14.8281 15.8281 15.5 15 15.5H12.75ZM2.21873 9.46875C1.92498 9.7625 1.92498 10.2375 2.21873 10.5281L6.46873 14.7812C6.76248 15.075 7.23748 15.075 7.5281 14.7812C7.81873 14.4875 7.82185 14.0125 7.5281 13.7219L4.55935 10.7531H12.25C12.6656 10.7531 13 10.4188 13 10.0031C13 9.5875 12.6656 9.25313 12.25 9.25313H4.55935L7.5281 6.28438C7.82185 5.99063 7.82185 5.51562 7.5281 5.225C7.23435 4.93437 6.75935 4.93125 6.46873 5.225L2.21873 9.46875Z" fill="#919293"/>
</svg>
