<svg width="14" height="14" viewBox="0 0 14 14" fill="none" xmlns="http://www.w3.org/2000/svg">
<path d="M10.5 5.95C10.5 6.95406 10.1741 7.88156 9.62502 8.63406L12.3944 11.4056C12.6678 11.6791 12.6678 12.1231 12.3944 12.3966C12.121 12.67 11.6769 12.67 11.4035 12.3966L8.63409 9.625C7.88159 10.1741 6.95409 10.5 5.95002 10.5C3.43659 10.5 1.40002 8.46344 1.40002 5.95C1.40002 3.43656 3.43659 1.4 5.95002 1.4C8.46346 1.4 10.5 3.43656 10.5 5.95ZM5.95002 9.1C6.36369 9.1 6.7733 9.01852 7.15548 8.86022C7.53765 8.70192 7.88491 8.46989 8.17741 8.17739C8.46991 7.88488 8.70194 7.53763 8.86025 7.15545C9.01855 6.77328 9.10002 6.36367 9.10002 5.95C9.10002 5.53634 9.01855 5.12672 8.86025 4.74455C8.70194 4.36237 8.46991 4.01512 8.17741 3.72262C7.88491 3.43011 7.53765 3.19808 7.15548 3.03978C6.7733 2.88148 6.36369 2.8 5.95002 2.8C5.53636 2.8 5.12675 2.88148 4.74457 3.03978C4.3624 3.19808 4.01514 3.43011 3.72264 3.72262C3.43013 4.01512 3.19811 4.36237 3.0398 4.74455C2.8815 5.12672 2.80002 5.53634 2.80002 5.95C2.80002 6.36367 2.8815 6.77328 3.0398 7.15545C3.19811 7.53763 3.43013 7.88488 3.72264 8.17739C4.01514 8.46989 4.3624 8.70192 4.74457 8.86022C5.12675 9.01852 5.53636 9.1 5.95002 9.1Z" fill="#000"></path>
</svg>