<svg width="20" height="20" viewBox="0 0 20 20" fill="none" xmlns="http://www.w3.org/2000/svg">
<path d="M18 3.5C18 3.24062 17.8656 3 17.6469 2.8625C17.4281 2.725 17.15 2.7125 16.9188 2.82812L13.0156 4.75312L7.625 2.91875C7.19688 2.77187 6.72813 2.8 6.31563 2.99062L2.43125 4.82187C2.16875 4.94375 2 5.20937 2 5.5V16.5C2 16.7562 2.13125 16.9969 2.34687 17.1344C2.5625 17.2719 2.83437 17.2875 3.06875 17.1781L7.04688 15.3062L12.275 17.05C12.2156 16.9562 12.1563 16.8625 12.1 16.7656C11.8063 16.2781 11.5125 15.725 11.2781 15.1375L8 14.0437V4.63437L12 5.99375V9.32812C12.4187 8.84062 12.9281 8.43437 13.5 8.12812V6.19062L16.5 4.70937V7.525C17.025 7.575 17.5281 7.7 18 7.89062V3.5ZM6.5 4.56562V13.9094L3.5 15.3219V5.97812L6.5 4.56562ZM16 9C13.9281 9 12.25 10.65 12.25 12.6844C12.25 14.8375 14.2531 17.3844 15.3313 18.6C15.6938 19.0062 16.3094 19.0062 16.6719 18.6C17.75 17.3844 19.7531 14.8375 19.7531 12.6844C19.7531 10.65 18.075 9 16.0031 9H16ZM14.75 12.75C14.75 12.4185 14.8817 12.1005 15.1161 11.8661C15.3505 11.6317 15.6685 11.5 16 11.5C16.3315 11.5 16.6495 11.6317 16.8839 11.8661C17.1183 12.1005 17.25 12.4185 17.25 12.75C17.25 13.0815 17.1183 13.3995 16.8839 13.6339C16.6495 13.8683 16.3315 14 16 14C15.6685 14 15.3505 13.8683 15.1161 13.6339C14.8817 13.3995 14.75 13.0815 14.75 12.75Z" fill="#919293"/>
</svg>
