<svg width="20" height="20" viewBox="0 0 20 20" fill="none" xmlns="http://www.w3.org/2000/svg">
<path d="M2.5 3.25V9.25C2.5 9.66563 2.83437 10 3.25 10H4.25C4.66563 10 5 10.3344 5 10.75V11.7281L6.70625 10.4156C7.05625 10.1469 7.48438 10 7.925 10H10.75C11.1656 10 11.5 9.66563 11.5 9.25V3.25C11.5 2.83437 11.1656 2.5 10.75 2.5H3.25C2.83437 2.5 2.5 2.83437 2.5 3.25ZM3.25 1H10.75C11.9937 1 13 2.00625 13 3.25V9.25C13 10.4937 11.9937 11.5 10.75 11.5H7.925C7.81563 11.5 7.70625 11.5375 7.61875 11.6031L4.70625 13.8438C4.48125 14.0187 4.175 14.0469 3.91875 13.9219C3.6625 13.7969 3.5 13.5344 3.5 13.25V11.5H3.25C2.00625 11.5 1 10.4937 1 9.25V3.25C1 2.00625 2.00625 1 3.25 1ZM8.5 13V14.25C8.5 14.6656 8.83437 15 9.25 15H12.075C12.5156 15 12.9437 15.1469 13.2937 15.4156L15 16.7281V15.75C15 15.3344 15.3344 15 15.75 15H16.75C17.1656 15 17.5 14.6656 17.5 14.25V8.25C17.5 7.83437 17.1656 7.5 16.75 7.5H14.5V6H16.75C17.9937 6 19 7.00625 19 8.25V14.25C19 15.4937 17.9937 16.5 16.75 16.5H16.5V18.25C16.5 18.5344 16.3375 18.7969 16.0813 18.9219C15.825 19.0469 15.5187 19.0187 15.2937 18.8438L12.3813 16.6031C12.2938 16.5344 12.1875 16.5 12.075 16.5H9.25C8.00625 16.5 7 15.4937 7 14.25V13.9719L8.26562 13H8.5Z" fill="#919293"/>
</svg>
