<svg width="20" height="20" viewBox="0 0 20 20" fill="none" xmlns="http://www.w3.org/2000/svg">
<path d="M3.84066 11.8469C3.50628 12.1813 3.26253 12.6 3.13441 13.0562L2.02816 17.05C1.95628 17.3094 2.02816 17.5906 2.22191 17.7812C2.41566 17.9719 2.69378 18.0469 2.95316 17.975L6.94691 16.8656C7.40316 16.7375 7.81878 16.4969 8.15628 16.1594L17.3438 6.97188C17.7625 6.55 18 5.975 18 5.375C18 4.775 17.7625 4.2 17.3375 3.77813L16.2219 2.6625C15.8 2.2375 15.225 2 14.625 2C14.025 2 13.45 2.2375 13.0282 2.6625L3.84066 11.85V11.8469ZM14.625 3.5C14.825 3.5 15.0188 3.58125 15.1625 3.72187L16.2782 4.8375C16.4219 4.98125 16.5 5.17188 16.5 5.375C16.5 5.57812 16.4188 5.76875 16.2782 5.9125L14.625 7.56563L12.4344 5.375L14.0875 3.72187C14.2313 3.57812 14.4219 3.5 14.625 3.5ZM5.43441 12.375L11.375 6.43437L13.5657 8.625L7.62503 14.5656L5.43441 12.375ZM4.54066 13.6031L6.39691 15.4594L3.82816 16.1719L4.54066 13.6031Z" fill="#919293"/>
</svg>
