<svg width="20" height="20" viewBox="0 0 20 20" fill="none" xmlns="http://www.w3.org/2000/svg">
<path d="M5.40625 5.40313C7.94375 2.86563 12.0594 2.86563 14.6 5.40313L15.4469 6.25H13.0031C12.5875 6.25 12.2531 6.58437 12.2531 7C12.2531 7.41563 12.5875 7.75 13.0031 7.75H17.2563C17.6719 7.75 18.0063 7.41563 18.0063 7V2.75C18.0063 2.33437 17.6719 2 17.2563 2C16.8406 2 16.5063 2.33437 16.5063 2.75V5.19062L15.6594 4.34375C12.5344 1.21875 7.46875 1.21875 4.34687 4.34375C2.99687 5.69375 2.22813 7.40937 2.04688 9.17188C2.00313 9.58437 2.30312 9.95313 2.71562 9.99375C3.12812 10.0344 3.49688 9.7375 3.5375 9.325C3.6875 7.89375 4.30938 6.50313 5.40625 5.40313ZM17.9594 10.8281C18.0031 10.4156 17.7031 10.0469 17.2906 10.0063C16.8781 9.96563 16.5094 10.2625 16.4688 10.675C16.3219 12.1063 15.6969 13.5 14.6 14.5969C12.0625 17.1344 7.94688 17.1344 5.40625 14.5969L4.55938 13.75H7.00313C7.41875 13.75 7.75313 13.4156 7.75313 13C7.75313 12.5844 7.41875 12.25 7.00313 12.25H2.75C2.33437 12.25 2 12.5844 2 13V17.25C2 17.6656 2.33437 18 2.75 18C3.16563 18 3.5 17.6656 3.5 17.25V14.8094L4.34687 15.6562C7.47187 18.7812 12.5375 18.7812 15.6594 15.6562C17.0094 14.3062 17.7781 12.5906 17.9594 10.8281Z" fill="#919293"/>
</svg>
