<svg width="18" height="18" viewBox="0 0 18 18" fill="none" xmlns="http://www.w3.org/2000/svg">
<path d="M3.17255 13.1541C3.15567 13.2103 3.15005 13.2666 3.15005 13.3256C3.15005 13.6716 3.4313 13.9528 3.77724 13.9528H8.32505V12.8278C8.32505 12.4538 8.62599 12.1528 9.00005 12.1528C9.37411 12.1528 9.67505 12.4538 9.67505 12.8278V13.9528H14.2229C14.5688 13.9528 14.85 13.6716 14.85 13.3256C14.85 13.2694 14.8416 13.2103 14.8275 13.1541L12.3469 4.37626C12.2907 4.18501 12.1135 4.05001 11.9138 4.05001H9.67505V5.17501C9.67505 5.54907 9.37411 5.85001 9.00005 5.85001C8.62599 5.85001 8.32505 5.54907 8.32505 5.17501V4.05001H6.0863C5.8838 4.05001 5.70942 4.18501 5.65317 4.37626L3.17255 13.1513V13.1541ZM1.87317 12.7856L4.3538 4.01064C4.57317 3.23439 5.28192 2.70001 6.0863 2.70001H11.9138C12.7182 2.70001 13.4269 3.23439 13.6463 4.01064L16.1269 12.7856C16.1775 12.96 16.2 13.14 16.2 13.3228C16.2 14.4141 15.3141 15.3 14.2229 15.3H3.77724C2.68599 15.3 1.80005 14.4141 1.80005 13.3228C1.80005 13.14 1.82536 12.96 1.87317 12.7856ZM9.67505 7.87501V10.125C9.67505 10.4991 9.37411 10.8 9.00005 10.8C8.62599 10.8 8.32505 10.4991 8.32505 10.125V7.87501C8.32505 7.50095 8.62599 7.20001 9.00005 7.20001C9.37411 7.20001 9.67505 7.50095 9.67505 7.87501Z" fill="#000"></path>
</svg>