<svg width="20" height="20" viewBox="0 0 20 20" fill="none" xmlns="http://www.w3.org/2000/svg">
<path d="M5 4.5C4.725 4.5 4.5 4.725 4.5 5V15C4.5 15.275 4.725 15.5 5 15.5H15C15.275 15.5 15.5 15.275 15.5 15V7.41563C15.5 7.28438 15.4469 7.15625 15.3531 7.0625L13 4.70625V7.5C13 8.05313 12.5531 8.5 12 8.5H7C6.44687 8.5 6 8.05313 6 7.5V4.5H5ZM7.5 4.5V7H11.5V4.5H7.5ZM3 5C3 3.89688 3.89688 3 5 3H12.5844C13.1156 3 13.625 3.20938 14 3.58438L16.4156 6C16.7906 6.375 17 6.88438 17 7.41563V15C17 16.1031 16.1031 17 15 17H5C3.89688 17 3 16.1031 3 15V5ZM8 12C8 11.4696 8.21071 10.9609 8.58579 10.5858C8.96086 10.2107 9.46957 10 10 10C10.5304 10 11.0391 10.2107 11.4142 10.5858C11.7893 10.9609 12 11.4696 12 12C12 12.5304 11.7893 13.0391 11.4142 13.4142C11.0391 13.7893 10.5304 14 10 14C9.46957 14 8.96086 13.7893 8.58579 13.4142C8.21071 13.0391 8 12.5304 8 12Z" fill="#919293"/>
</svg>
