<svg width="20" height="20" viewBox="0 0 20 20" fill="none" xmlns="http://www.w3.org/2000/svg">
<path d="M8.42192 4.89687L8.85004 3H11.15L11.5782 4.89687C11.6313 5.12812 11.7907 5.32188 12.0094 5.41875C12.3469 5.56875 12.6657 5.75312 12.9594 5.96875C13.15 6.10938 13.4 6.15313 13.6282 6.08125L15.4875 5.50313L16.6375 7.49687L15.2063 8.81875C15.0313 8.98125 14.9438 9.21562 14.9688 9.45C15.0094 9.80937 15.0094 10.1906 14.9688 10.55C14.9438 10.7875 15.0313 11.0219 15.2063 11.1812L16.6375 12.5031L15.4875 14.4969L13.6282 13.9187C13.4 13.8469 13.1532 13.8906 12.9594 14.0312C12.6657 14.2469 12.3469 14.4344 12.0094 14.5813C11.7907 14.6781 11.6313 14.8719 11.5782 15.1031L11.15 17H8.85004L8.42192 15.1031C8.36879 14.8719 8.20941 14.6781 7.99066 14.5813C7.65316 14.4313 7.33442 14.2469 7.04067 14.0312C6.85004 13.8906 6.60004 13.8469 6.37191 13.9187L4.51254 14.4969L3.36254 12.5031L4.79379 11.1812C4.96879 11.0187 5.05629 10.7844 5.03129 10.55C4.99067 10.1906 4.99067 9.80937 5.03129 9.45C5.05629 9.2125 4.96879 8.97812 4.79379 8.81875L3.36254 7.49687L4.51254 5.50313L6.37191 6.08125C6.60004 6.15313 6.84692 6.10938 7.04067 5.96875C7.33442 5.75312 7.65316 5.56563 7.99066 5.41875C8.20941 5.32188 8.36879 5.12812 8.42192 4.89687ZM8.65004 1.5C8.06567 1.5 7.55942 1.90625 7.43129 2.475L7.03754 4.2125C6.84066 4.3125 6.65317 4.42188 6.46879 4.54063L4.76879 4.0125C4.20942 3.8375 3.60629 4.075 3.31567 4.58125L1.96567 6.91875C1.67504 7.425 1.77192 8.06563 2.20004 8.4625L3.50942 9.67188C3.50004 9.8875 3.50004 10.1094 3.50942 10.3281L2.20004 11.5375C1.77192 11.9344 1.67192 12.575 1.96567 13.0813L3.31567 15.4187C3.60629 15.925 4.21254 16.1594 4.76879 15.9875L6.47192 15.4594C6.65629 15.5781 6.84379 15.6875 7.04067 15.7875L7.43441 17.525C7.56254 18.0937 8.06879 18.5 8.65316 18.5H11.3532C11.9375 18.5 12.4438 18.0937 12.5719 17.525L12.9657 15.7875C13.1625 15.6875 13.35 15.5781 13.5344 15.4594L15.2375 15.9875C15.7969 16.1625 16.4 15.925 16.6907 15.4187L18.0407 13.0813C18.3313 12.575 18.2344 11.9344 17.8063 11.5375L16.4969 10.3281C16.5063 10.1125 16.5063 9.89062 16.4969 9.67188L17.8063 8.4625C18.2344 8.06563 18.3313 7.425 18.0407 6.91875L16.6875 4.58125C16.3938 4.075 15.7907 3.84063 15.2344 4.0125L13.5313 4.54063C13.3469 4.42188 13.1594 4.3125 12.9625 4.2125L12.5719 2.475C12.4407 1.90625 11.9344 1.5 11.35 1.5H8.65004ZM11.5 10C11.5 10.3978 11.342 10.7794 11.0607 11.0607C10.7794 11.342 10.3979 11.5 10 11.5C9.60222 11.5 9.22068 11.342 8.93938 11.0607C8.65808 10.7794 8.50004 10.3978 8.50004 10C8.50004 9.60218 8.65808 9.22064 8.93938 8.93934C9.22068 8.65804 9.60222 8.5 10 8.5C10.3979 8.5 10.7794 8.65804 11.0607 8.93934C11.342 9.22064 11.5 9.60218 11.5 10ZM10 7C9.20439 7 8.44133 7.31607 7.87872 7.87868C7.31611 8.44129 7.00004 9.20435 7.00004 10C7.00004 10.7956 7.31611 11.5587 7.87872 12.1213C8.44133 12.6839 9.20439 13 10 13C10.7957 13 11.5588 12.6839 12.1214 12.1213C12.684 11.5587 13 10.7956 13 10C13 9.20435 12.684 8.44129 12.1214 7.87868C11.5588 7.31607 10.7957 7 10 7Z" fill="#919293"/>
</svg>
