<svg width="14" height="14" viewBox="0 0 14 14" fill="none" xmlns="http://www.w3.org/2000/svg">
<path d="M11.725 2.62498C11.725 2.33404 11.491 2.09998 11.2 2.09998C10.9091 2.09998 10.675 2.33404 10.675 2.62498V11.375C10.675 11.6659 10.9091 11.9 11.2 11.9C11.491 11.9 11.725 11.6659 11.725 11.375V2.62498ZM8.40002 4.19998C8.10909 4.19998 7.87502 4.43404 7.87502 4.72498V11.375C7.87502 11.6659 8.10909 11.9 8.40002 11.9C8.69096 11.9 8.92502 11.6659 8.92502 11.375V4.72498C8.92502 4.43404 8.69096 4.19998 8.40002 4.19998ZM6.12502 7.52498C6.12502 7.23404 5.89096 6.99998 5.60002 6.99998C5.30909 6.99998 5.07502 7.23404 5.07502 7.52498V11.375C5.07502 11.6659 5.30909 11.9 5.60002 11.9C5.89096 11.9 6.12502 11.6659 6.12502 11.375V7.52498ZM3.32502 10.325C3.32502 10.034 3.09096 9.79998 2.80002 9.79998C2.50909 9.79998 2.27502 10.034 2.27502 10.325V11.375C2.27502 11.6659 2.50909 11.9 2.80002 11.9C3.09096 11.9 3.32502 11.6659 3.32502 11.375V10.325Z" fill="#000"></path>
</svg>