<svg width="20" height="20" viewBox="0 0 20 20" fill="none" xmlns="http://www.w3.org/2000/svg">
<path d="M16.5 10C16.5 8.27609 15.8152 6.62279 14.5962 5.40381C13.3772 4.18482 11.7239 3.5 10 3.5C8.27609 3.5 6.62279 4.18482 5.40381 5.40381C4.18482 6.62279 3.5 8.27609 3.5 10C3.5 11.7239 4.18482 13.3772 5.40381 14.5962C6.62279 15.8152 8.27609 16.5 10 16.5C11.7239 16.5 13.3772 15.8152 14.5962 14.5962C15.8152 13.3772 16.5 11.7239 16.5 10ZM2 10C2 7.87827 2.84285 5.84344 4.34315 4.34315C5.84344 2.84285 7.87827 2 10 2C12.1217 2 14.1566 2.84285 15.6569 4.34315C17.1571 5.84344 18 7.87827 18 10C18 12.1217 17.1571 14.1566 15.6569 15.6569C14.1566 17.1571 12.1217 18 10 18C7.87827 18 5.84344 17.1571 4.34315 15.6569C2.84285 14.1566 2 12.1217 2 10ZM7.54063 11.9812C8.00938 12.4687 8.825 13 10 13C11.175 13 11.9906 12.4687 12.4594 11.9812C12.7469 11.6812 13.2219 11.6719 13.5188 11.9594C13.8156 12.2469 13.8281 12.7219 13.5406 13.0188C12.85 13.7375 11.6656 14.5 10 14.5C8.33438 14.5 7.15 13.7375 6.45937 13.0188C6.17187 12.7188 6.18125 12.2438 6.48125 11.9594C6.78125 11.675 7.25625 11.6812 7.54063 11.9812ZM6.5 8.5C6.5 8.23478 6.60536 7.98043 6.79289 7.79289C6.98043 7.60536 7.23478 7.5 7.5 7.5C7.76522 7.5 8.01957 7.60536 8.20711 7.79289C8.39464 7.98043 8.5 8.23478 8.5 8.5C8.5 8.76522 8.39464 9.01957 8.20711 9.20711C8.01957 9.39464 7.76522 9.5 7.5 9.5C7.23478 9.5 6.98043 9.39464 6.79289 9.20711C6.60536 9.01957 6.5 8.76522 6.5 8.5ZM12.5 7.5C12.7652 7.5 13.0196 7.60536 13.2071 7.79289C13.3946 7.98043 13.5 8.23478 13.5 8.5C13.5 8.76522 13.3946 9.01957 13.2071 9.20711C13.0196 9.39464 12.7652 9.5 12.5 9.5C12.2348 9.5 11.9804 9.39464 11.7929 9.20711C11.6054 9.01957 11.5 8.76522 11.5 8.5C11.5 8.23478 11.6054 7.98043 11.7929 7.79289C11.9804 7.60536 12.2348 7.5 12.5 7.5Z" fill="#919293"/>
</svg>
