<svg width="16" height="16" viewBox="0 0 16 16" fill="none" xmlns="http://www.w3.org/2000/svg">
<path d="M2.00005 4.99999V3.59999H4.20005V12.4H3.00005C2.66755 12.4 2.40005 12.6675 2.40005 13C2.40005 13.3325 2.66755 13.6 3.00005 13.6H6.60005C6.93255 13.6 7.20005 13.3325 7.20005 13C7.20005 12.6675 6.93255 12.4 6.60005 12.4H5.40005V3.59999H7.60005V4.99999C7.60005 5.33249 7.86755 5.59999 8.20005 5.59999C8.53255 5.59999 8.80005 5.33249 8.80005 4.99999V3.39999C8.80005 2.84749 8.35255 2.39999 7.80005 2.39999H1.80005C1.24755 2.39999 0.800049 2.84749 0.800049 3.39999V4.99999C0.800049 5.33249 1.06755 5.59999 1.40005 5.59999C1.73255 5.59999 2.00005 5.33249 2.00005 4.99999ZM8.40005 9.79999V8.39999H10.6V12.4H9.40005C9.06755 12.4 8.80005 12.6675 8.80005 13C8.80005 13.3325 9.06755 13.6 9.40005 13.6H13C13.3325 13.6 13.6 13.3325 13.6 13C13.6 12.6675 13.3325 12.4 13 12.4H11.8V8.39999H14V9.79999C14 10.1325 14.2675 10.4 14.6 10.4C14.9325 10.4 15.2 10.1325 15.2 9.79999V8.19999C15.2 7.64749 14.7525 7.19999 14.2 7.19999H8.20005C7.64755 7.19999 7.20005 7.64749 7.20005 8.19999V9.79999C7.20005 10.1325 7.46755 10.4 7.80005 10.4C8.13255 10.4 8.40005 10.1325 8.40005 9.79999Z" fill="#000"></path>
</svg>