<svg width="18" height="18" viewBox="0 0 18 18" fill="none" xmlns="http://www.w3.org/2000/svg">
<path d="M2.25002 5.62501V4.05001H4.72502V13.95H3.37502C3.00096 13.95 2.70002 14.251 2.70002 14.625C2.70002 14.9991 3.00096 15.3 3.37502 15.3H7.42502C7.79909 15.3 8.10002 14.9991 8.10002 14.625C8.10002 14.251 7.79909 13.95 7.42502 13.95H6.07502V4.05001H8.55002V5.62501C8.55002 5.99907 8.85096 6.30001 9.22502 6.30001C9.59909 6.30001 9.90002 5.99907 9.90002 5.62501V3.82501C9.90002 3.20345 9.39659 2.70001 8.77502 2.70001H2.02502C1.40346 2.70001 0.900024 3.20345 0.900024 3.82501V5.62501C0.900024 5.99907 1.20096 6.30001 1.57502 6.30001C1.94909 6.30001 2.25002 5.99907 2.25002 5.62501ZM9.45002 11.025V9.45001H11.925V13.95H10.575C10.201 13.95 9.90002 14.251 9.90002 14.625C9.90002 14.9991 10.201 15.3 10.575 15.3H14.625C14.9991 15.3 15.3 14.9991 15.3 14.625C15.3 14.251 14.9991 13.95 14.625 13.95H13.275V9.45001H15.75V11.025C15.75 11.3991 16.051 11.7 16.425 11.7C16.7991 11.7 17.1 11.3991 17.1 11.025V9.22501C17.1 8.60345 16.5966 8.10001 15.975 8.10001H9.22502C8.60346 8.10001 8.10002 8.60345 8.10002 9.22501V11.025C8.10002 11.3991 8.40096 11.7 8.77502 11.7C9.14909 11.7 9.45002 11.3991 9.45002 11.025Z" fill="#000"></path>
</svg>