<svg width="20" height="20" viewBox="0 0 20 20" fill="none" xmlns="http://www.w3.org/2000/svg">
<path d="M7.25625 2.15C7.40312 1.75937 7.775 1.5 8.19375 1.5H11.8062C12.2219 1.5 12.5969 1.75937 12.7437 2.15L13.25 3.5H16.25C16.6656 3.5 17 3.83437 17 4.25C17 4.66563 16.6656 5 16.25 5H3.75C3.33437 5 3 4.66563 3 4.25C3 3.83437 3.33437 3.5 3.75 3.5H6.75L7.25625 2.15ZM4.6125 16.15L3.89688 6.5H5.40313L6.10938 16.0375C6.12813 16.3 6.34688 16.5 6.60938 16.5H13.3938C13.6563 16.5 13.8719 16.2969 13.8938 16.0375L14.6 6.5H16.1031L15.3875 16.1469C15.3094 17.1906 14.4406 18 13.3938 18H6.60938C5.5625 18 4.69375 17.1906 4.61563 16.1469L4.6125 16.15Z" fill="#919293"/>
</svg>
