<svg width="14" height="14" viewBox="0 0 14 14" fill="none" xmlns="http://www.w3.org/2000/svg">
<path d="M7.01123 1.40002C7.33279 1.40002 7.6281 1.57721 7.78123 1.8594L12.5062 10.6094C12.6528 10.8806 12.6462 11.2088 12.4887 11.4735C12.3312 11.7381 12.0447 11.9 11.7362 11.9H2.28623C1.97779 11.9 1.69342 11.7381 1.53592 11.4735C1.37842 11.2088 1.37185 10.8806 1.51842 10.6094L6.24342 1.8594C6.39654 1.57721 6.69185 1.40002 7.01342 1.40002H7.01123ZM2.57935 10.85H11.4431L7.01123 2.64252L2.57935 10.85ZM7.01123 9.97502C6.82558 9.97502 6.64753 9.90127 6.51625 9.77C6.38498 9.63872 6.31123 9.46068 6.31123 9.27502C6.31123 9.08937 6.38498 8.91133 6.51625 8.78005C6.64753 8.64877 6.82558 8.57502 7.01123 8.57502C7.19688 8.57502 7.37493 8.64877 7.5062 8.78005C7.63748 8.91133 7.71123 9.08937 7.71123 9.27502C7.71123 9.46068 7.63748 9.63872 7.5062 9.77C7.37493 9.90127 7.19688 9.97502 7.01123 9.97502ZM7.01123 5.42502C7.4181 5.42502 7.7331 5.77721 7.68935 6.1819L7.53404 7.58409C7.50342 7.84877 7.2781 8.05002 7.01123 8.05002C6.74435 8.05002 6.51904 7.84877 6.4906 7.58409L6.33529 6.1819C6.29154 5.77721 6.60654 5.42502 7.01342 5.42502H7.01123Z" fill="#000"></path>
</svg>