<svg width="20" height="20" viewBox="0 0 20 20" fill="none" xmlns="http://www.w3.org/2000/svg">
<path d="M10.5312 2.21876C10.2375 1.92501 9.7625 1.92501 9.47188 2.21876L5.21875 6.46876C4.925 6.76251 4.925 7.23751 5.21875 7.52813C5.5125 7.81876 5.9875 7.82188 6.27813 7.52813L9.24687 4.55938V12.25C9.24687 12.6656 9.58125 13 9.99687 13C10.4125 13 10.7469 12.6656 10.7469 12.25V4.55938L13.7156 7.52813C14.0094 7.82188 14.4844 7.82188 14.775 7.52813C15.0656 7.23438 15.0687 6.75938 14.775 6.46876L10.5312 2.21876ZM4.5 12.75C4.5 12.3344 4.16563 12 3.75 12C3.33437 12 3 12.3344 3 12.75V15C3 16.6563 4.34375 18 6 18H14C15.6562 18 17 16.6563 17 15V12.75C17 12.3344 16.6656 12 16.25 12C15.8344 12 15.5 12.3344 15.5 12.75V15C15.5 15.8281 14.8281 16.5 14 16.5H6C5.17188 16.5 4.5 15.8281 4.5 15V12.75Z" fill="#919293"/>
</svg>
