<svg width="18" height="18" viewBox="0 0 18 18" fill="none" xmlns="http://www.w3.org/2000/svg">
<path d="M9 7.2C9.47739 7.2 9.93523 7.01036 10.2728 6.67279C10.6104 6.33523 10.8 5.87739 10.8 5.4C10.8 4.92261 10.6104 4.46477 10.2728 4.12721C9.93523 3.78964 9.47739 3.6 9 3.6C8.52261 3.6 8.06477 3.78964 7.72721 4.12721C7.38964 4.46477 7.2 4.92261 7.2 5.4C7.2 5.87739 7.38964 6.33523 7.72721 6.67279C8.06477 7.01036 8.52261 7.2 9 7.2ZM9 2.25C9.83543 2.25 10.6366 2.58187 11.2274 3.17261C11.8181 3.76335 12.15 4.56457 12.15 5.4C12.15 6.23543 11.8181 7.03665 11.2274 7.62739C10.6366 8.21813 9.83543 8.55 9 8.55C8.16457 8.55 7.36335 8.21813 6.77261 7.62739C6.18187 7.03665 5.85 6.23543 5.85 5.4C5.85 4.56457 6.18187 3.76335 6.77261 3.17261C7.36335 2.58187 8.16457 2.25 9 2.25ZM8.325 11.25C6.71062 11.25 5.4 12.5606 5.4 14.175V14.625C5.4 14.9991 5.09906 15.3 4.725 15.3C4.35094 15.3 4.05 14.9991 4.05 14.625V14.175C4.05 11.8153 5.96531 9.9 8.325 9.9H9.675C12.0347 9.9 13.95 11.8153 13.95 14.175V14.625C13.95 14.9991 13.6491 15.3 13.275 15.3C12.9009 15.3 12.6 14.9991 12.6 14.625V14.175C12.6 12.5606 11.2894 11.25 9.675 11.25H8.325ZM12.1331 8.62875C12.4622 8.31094 12.7406 7.9425 12.96 7.5375C13.1259 7.61063 13.3087 7.65 13.5 7.65C14.2453 7.65 14.85 7.04531 14.85 6.3C14.85 5.55469 14.2453 4.95 13.5 4.95H13.4775C13.4325 4.48313 13.3144 4.03875 13.1372 3.62531C13.2553 3.60844 13.3791 3.6 13.5 3.6C14.9906 3.6 16.2 4.80938 16.2 6.3C16.2 7.79063 14.9906 9 13.5 9C13.0022 9 12.5353 8.865 12.1331 8.62875ZM4.5 3.6C4.62375 3.6 4.74469 3.60844 4.86281 3.62531C4.68562 4.03875 4.5675 4.48594 4.5225 4.95H4.5C3.75469 4.95 3.15 5.55469 3.15 6.3C3.15 7.04531 3.75469 7.65 4.5 7.65C4.69125 7.65 4.87406 7.61063 5.04 7.5375C5.25937 7.9425 5.53781 8.31094 5.86688 8.62875C5.4675 8.865 5.00062 9 4.5 9C3.00937 9 1.8 7.79063 1.8 6.3C1.8 4.80938 3.00937 3.6 4.5 3.6ZM4.19906 10.35C3.77437 10.8084 3.42562 11.3344 3.1725 11.9138C2.10375 12.3497 1.35 13.3988 1.35 14.625C1.35 14.9991 1.04906 15.3 0.675 15.3C0.300937 15.3 0 14.9991 0 14.625C0 12.2878 1.87313 10.3894 4.19906 10.35ZM14.8275 11.9138C14.5744 11.3344 14.2228 10.8056 13.8009 10.35C16.1269 10.3894 18 12.2878 18 14.625C18 14.9991 17.6991 15.3 17.325 15.3C16.9509 15.3 16.65 14.9991 16.65 14.625C16.65 13.3988 15.8962 12.3497 14.8275 11.9138Z" fill="#000"></path>
</svg>