<svg width="18" height="18" viewBox="0 0 18 18" fill="none" xmlns="http://www.w3.org/2000/svg">
<path d="M9.45002 5.39999C9.45002 4.80325 9.21297 4.23095 8.79101 3.809C8.36906 3.38704 7.79676 3.14999 7.20002 3.14999C6.60329 3.14999 6.03099 3.38704 5.60903 3.809C5.18708 4.23095 4.95002 4.80325 4.95002 5.39999C4.95002 5.99673 5.18708 6.56902 5.60903 6.99098C6.03099 7.41294 6.60329 7.64999 7.20002 7.64999C7.79676 7.64999 8.36906 7.41294 8.79101 6.99098C9.21297 6.56902 9.45002 5.99673 9.45002 5.39999ZM3.60002 5.39999C3.60002 4.44521 3.97931 3.52953 4.65444 2.8544C5.32957 2.17927 6.24525 1.79999 7.20002 1.79999C8.1548 1.79999 9.07048 2.17927 9.74561 2.8544C10.4207 3.52953 10.8 4.44521 10.8 5.39999C10.8 6.35477 10.4207 7.27044 9.74561 7.94557C9.07048 8.6207 8.1548 8.99999 7.20002 8.99999C6.24525 8.99999 5.32957 8.6207 4.65444 7.94557C3.97931 7.27044 3.60002 6.35477 3.60002 5.39999ZM2.25002 15.3V15.525C2.25002 15.8991 1.94909 16.2 1.57502 16.2C1.20096 16.2 0.900024 15.8991 0.900024 15.525V15.3C0.900024 12.5662 3.11627 10.35 5.85002 10.35H8.37284C8.13096 10.7691 7.94252 11.2219 7.82159 11.7H5.85284C3.8644 11.7 2.25284 13.3116 2.25284 15.3H2.25002ZM9.00002 13.05C9.00002 11.9759 9.42672 10.9457 10.1862 10.1862C10.9458 9.42668 11.9759 8.99999 13.05 8.99999C14.1242 8.99999 15.1543 9.42668 15.9138 10.1862C16.6733 10.9457 17.1 11.9759 17.1 13.05C17.1 14.1241 16.6733 15.1542 15.9138 15.9138C15.1543 16.6733 14.1242 17.1 13.05 17.1C11.9759 17.1 10.9458 16.6733 10.1862 15.9138C9.42672 15.1542 9.00002 14.1241 9.00002 13.05ZM13.05 10.8C12.8025 10.8 12.6 11.0025 12.6 11.25V13.05C12.6 13.2975 12.8025 13.5 13.05 13.5H14.4C14.6475 13.5 14.85 13.2975 14.85 13.05C14.85 12.8025 14.6475 12.6 14.4 12.6H13.5V11.25C13.5 11.0025 13.2975 10.8 13.05 10.8Z" fill="#000"></path>
</svg>