<svg width="18" height="18" viewBox="0 0 18 18" fill="none" xmlns="http://www.w3.org/2000/svg">
<path d="M8.55002 10.35C11.2838 10.35 13.5 12.5662 13.5 15.3V15.525C13.5 15.899 13.1991 16.2 12.825 16.2C12.451 16.2 12.15 15.899 12.15 15.525V15.3C12.15 13.3116 10.5385 11.7 8.55002 11.7H5.85002C3.86159 11.7 2.25002 13.3116 2.25002 15.3V15.525C2.25002 15.899 1.94909 16.2 1.57502 16.2C1.20096 16.2 0.900024 15.899 0.900024 15.525V15.3C0.900024 12.5662 3.11627 10.35 5.85002 10.35H8.55002ZM14.85 4.04999C15.2241 4.04999 15.525 4.35093 15.525 4.72499V6.07499H16.875C17.2491 6.07499 17.55 6.37593 17.55 6.74999C17.55 7.12405 17.2491 7.42499 16.875 7.42499H15.525V8.77499C15.525 9.14905 15.2241 9.44999 14.85 9.44999C14.476 9.44999 14.175 9.14905 14.175 8.77499V7.42499H12.825C12.451 7.42499 12.15 7.12405 12.15 6.74999C12.15 6.37593 12.451 6.07499 12.825 6.07499H14.175V4.72499C14.175 4.35093 14.476 4.04999 14.85 4.04999ZM7.20002 8.99999C6.24524 8.99999 5.32957 8.6207 4.65444 7.94557C3.97931 7.27044 3.60002 6.35477 3.60002 5.39999C3.60002 4.44521 3.97931 3.52953 4.65444 2.8544C5.32957 2.17927 6.24524 1.79999 7.20002 1.79999C8.1548 1.79999 9.07048 2.17927 9.74561 2.8544C10.4207 3.52953 10.8 4.44521 10.8 5.39999C10.8 6.35477 10.4207 7.27044 9.74561 7.94557C9.07048 8.6207 8.1548 8.99999 7.20002 8.99999ZM7.20002 3.14999C6.60329 3.14999 6.03099 3.38704 5.60903 3.809C5.18708 4.23095 4.95002 4.80325 4.95002 5.39999C4.95002 5.99672 5.18708 6.56902 5.60903 6.99098C6.03099 7.41293 6.60329 7.64999 7.20002 7.64999C7.79676 7.64999 8.36906 7.41293 8.79101 6.99098C9.21297 6.56902 9.45002 5.99672 9.45002 5.39999C9.45002 4.80325 9.21297 4.23095 8.79101 3.809C8.36906 3.38704 7.79676 3.14999 7.20002 3.14999Z" fill="#000"></path>
</svg>