<svg width="16" height="16" viewBox="0 0 16 16" fill="none" xmlns="http://www.w3.org/2000/svg">
<path d="M7.59993 9.20004C10.0299 9.20004 11.9999 11.17 11.9999 13.6V13.8C11.9999 14.1325 11.7324 14.4 11.3999 14.4C11.0674 14.4 10.7999 14.1325 10.7999 13.8V13.6C10.7999 11.8325 9.36743 10.4 7.59993 10.4H5.19993C3.43243 10.4 1.99993 11.8325 1.99993 13.6V13.8C1.99993 14.1325 1.73243 14.4 1.39993 14.4C1.06743 14.4 0.799927 14.1325 0.799927 13.8V13.6C0.799927 11.17 2.76993 9.20004 5.19993 9.20004H7.59993ZM13.1999 3.60004C13.5324 3.60004 13.7999 3.86754 13.7999 4.20004V5.40004H14.9999C15.3324 5.40004 15.5999 5.66754 15.5999 6.00004C15.5999 6.33254 15.3324 6.60004 14.9999 6.60004H13.7999V7.80004C13.7999 8.13254 13.5324 8.40004 13.1999 8.40004C12.8674 8.40004 12.5999 8.13254 12.5999 7.80004V6.60004H11.3999C11.0674 6.60004 10.7999 6.33254 10.7999 6.00004C10.7999 5.66754 11.0674 5.40004 11.3999 5.40004H12.5999V4.20004C12.5999 3.86754 12.8674 3.60004 13.1999 3.60004ZM6.39993 8.00004C5.55123 8.00004 4.7373 7.66289 4.13718 7.06278C3.53707 6.46266 3.19993 5.64873 3.19993 4.80004C3.19993 3.95134 3.53707 3.13741 4.13718 2.53729C4.7373 1.93718 5.55123 1.60004 6.39993 1.60004C7.24862 1.60004 8.06255 1.93718 8.66267 2.53729C9.26278 3.13741 9.59993 3.95134 9.59993 4.80004C9.59993 5.64873 9.26278 6.46266 8.66267 7.06278C8.06255 7.66289 7.24862 8.00004 6.39993 8.00004ZM6.39993 2.80004C5.86949 2.80004 5.36079 3.01075 4.98571 3.38582C4.61064 3.7609 4.39993 4.2696 4.39993 4.80004C4.39993 5.33047 4.61064 5.83918 4.98571 6.21425C5.36079 6.58932 5.86949 6.80004 6.39993 6.80004C6.93036 6.80004 7.43907 6.58932 7.81414 6.21425C8.18921 5.83918 8.39993 5.33047 8.39993 4.80004C8.39993 4.2696 8.18921 3.7609 7.81414 3.38582C7.43907 3.01075 6.93036 2.80004 6.39993 2.80004Z" fill="#000"></path>
</svg>