<svg width="20" height="20" viewBox="0 0 20 20" fill="none" xmlns="http://www.w3.org/2000/svg">
<path d="M4.23435 5.28124C3.9406 4.98749 3.9406 4.51249 4.23435 4.22187C4.5281 3.93124 5.0031 3.92812 5.29373 4.22187L10.0125 8.94062L14.7312 4.22187C15.025 3.92812 15.5 3.92812 15.7906 4.22187C16.0812 4.51562 16.0843 4.99062 15.7906 5.28124L11.0719 9.99999L15.7906 14.7187C16.0843 15.0125 16.0843 15.4875 15.7906 15.7781C15.4968 16.0687 15.0219 16.0719 14.7312 15.7781L10.0125 11.0594L5.29373 15.7781C4.99998 16.0719 4.52498 16.0719 4.23435 15.7781C3.94373 15.4844 3.9406 15.0094 4.23435 14.7187L8.9531 9.99999L4.23435 5.28124Z" fill="#919293"/>
</svg>
