<svg preserveAspectRatio="none" width="100%" height="100%" overflow="visible" style="display: block;" viewBox="0 0 1572 1909" fill="none" xmlns="http://www.w3.org/2000/svg">
<path id="Primary" d="M1197.25 13.7328C1229.18 34.7853 1242.86 74.4341 1230.93 110.574L1024.61 729.868H1448.84C1516.91 729.868 1572 784.955 1572 853.025C1572 888.112 1557.26 921.445 1530.95 944.603L477.214 1887.4C448.792 1913.02 406.685 1916.17 374.754 1895.12C342.822 1874.07 329.137 1834.42 341.068 1798.28L547.393 1178.99H123.163C55.0902 1178.99 0 1123.9 0 1055.83C0 1021.09 14.7375 987.761 41.0545 964.252L1094.79 21.4521C1123.21 -4.16178 1165.32 -6.96878 1197.25 13.7328ZM241.765 1010.57H664.24C691.259 1010.57 716.874 1023.55 732.664 1045.66C748.454 1067.76 752.665 1095.83 744.244 1121.44L601.079 1550.56L1330.23 898.288H907.76C880.741 898.288 855.126 885.305 839.336 863.2C823.546 841.095 819.335 813.025 827.756 787.411L970.921 358.292L241.765 1010.57Z" fill="var(--fill-0, white)" fill-opacity="0.01"/>
</svg>
